<svg xmlns="http://www.w3.org/2000/svg" xml:space="preserve" width="512" height="512" style="enable-background:new 0 0 512 512" viewBox="0 0 24 24"><path d="M9.5 24h-8a1.5 1.5 0 0 1 0-3h8a1.5 1.5 0 0 1 0 3zm-2-5h-6a1.5 1.5 0 0 1 0-3h6a1.5 1.5 0 0 1 0 3zm-2-5h-4a1.5 1.5 0 0 1 0-3h4a1.5 1.5 0 0 1 0 3z" data-original="#000000"/><path d="M14.5 23.722a1.5 1.5 0 0 1-.354-2.958A9.022 9.022 0 1 0 3.843 8.142a1.5 1.5 0 0 1-2.711-1.284 12.023 12.023 0 1 1 13.723 16.821 1.513 1.513 0 0 1-.355.043z" data-original="#000000"/><path d="M12.5 6A1.5 1.5 0 0 0 11 7.5v4.293a2 2 0 0 0 .586 1.414L13.379 15a1.5 1.5 0 0 0 2.121-2.121l-1.5-1.5V7.5A1.5 1.5 0 0 0 12.5 6z" data-original="#000000"/></svg>