<svg width="512" height="512" viewBox="0 0 512 512" fill="none" xmlns="http://www.w3.org/2000/svg">
<g clip-path="url(#clip0_434_9)">
<path d="M448.001 85.3333H381.868C376.917 61.2568 363.816 39.6234 344.775 24.0793C325.733 8.53525 301.915 0.0310299 277.335 0L234.668 0C210.088 0.0310299 186.269 8.53525 167.228 24.0793C148.186 39.6234 135.086 61.2568 130.135 85.3333H64.0013C58.3434 85.3333 52.9171 87.581 48.9164 91.5817C44.9156 95.5825 42.668 101.009 42.668 106.667C42.668 112.325 44.9156 117.751 48.9164 121.752C52.9171 125.752 58.3434 128 64.0013 128H85.3346V405.333C85.3685 433.613 96.6175 460.724 116.614 480.721C136.611 500.717 163.722 511.966 192.001 512H320.001C348.281 511.966 375.392 500.717 395.389 480.721C415.385 460.724 426.634 433.613 426.668 405.333V128H448.001C453.659 128 459.085 125.752 463.086 121.752C467.087 117.751 469.335 112.325 469.335 106.667C469.335 101.009 467.087 95.5825 463.086 91.5817C459.085 87.581 453.659 85.3333 448.001 85.3333ZM234.668 42.6667H277.335C290.567 42.6828 303.471 46.792 314.276 54.4308C325.081 62.0696 333.258 72.8638 337.687 85.3333H174.316C178.744 72.8638 186.922 62.0696 197.727 54.4308C208.532 46.792 221.435 42.6828 234.668 42.6667ZM384.001 405.333C384.001 422.307 377.258 438.586 365.256 450.588C353.254 462.591 336.975 469.333 320.001 469.333H192.001C175.027 469.333 158.749 462.591 146.746 450.588C134.744 438.586 128.001 422.307 128.001 405.333V128H384.001V405.333Z" fill="white"/>
<path d="M213.333 384C218.991 384 224.417 381.752 228.418 377.751C232.419 373.751 234.667 368.324 234.667 362.666V234.666C234.667 229.008 232.419 223.582 228.418 219.581C224.417 215.581 218.991 213.333 213.333 213.333C207.675 213.333 202.249 215.581 198.248 219.581C194.248 223.582 192 229.008 192 234.666V362.666C192 368.324 194.248 373.751 198.248 377.751C202.249 381.752 207.675 384 213.333 384ZM298.667 384C304.325 384 309.751 381.752 313.752 377.751C317.752 373.751 320 368.324 320 362.666V234.666C320 229.008 317.752 223.582 313.752 219.581C309.751 215.581 304.325 213.333 298.667 213.333C293.009 213.333 287.583 215.581 283.582 219.581C279.581 223.582 277.333 229.008 277.333 234.666V362.666C277.333 368.324 279.581 373.751 283.582 377.751C287.583 381.752 293.009 384 298.667 384Z" fill="white"/>
</g>
<defs>
<clipPath id="clip0_434_9">
<rect width="512" height="512" fill="white"/>
</clipPath>
</defs>
</svg>
