<svg width="512" height="512" viewBox="0 0 512 512" fill="none" xmlns="http://www.w3.org/2000/svg">
<g clip-path="url(#clip0_434_2)">
<path d="M397.996 19.8402L137.9 279.936C127.966 289.817 120.091 301.569 114.73 314.514C109.369 327.459 106.629 341.339 106.668 355.35V384C106.668 389.658 108.916 395.084 112.917 399.085C116.918 403.086 122.344 405.334 128.002 405.334H156.652C170.663 405.373 184.543 402.633 197.488 397.272C210.433 391.911 222.185 384.036 232.066 374.102L492.162 114.006C504.629 101.508 511.63 84.5757 511.63 66.9229C511.63 49.2701 504.629 32.3379 492.162 19.8402C479.483 7.72064 462.619 0.957031 445.079 0.957031C427.539 0.957031 410.675 7.72064 397.996 19.8402ZM461.996 83.8402L201.9 343.936C189.871 355.892 173.613 362.622 156.652 362.667H149.335V355.35C149.38 338.389 156.11 322.131 168.066 310.102L428.162 50.0056C432.718 45.6526 438.777 43.2236 445.079 43.2236C451.381 43.2236 457.44 45.6526 461.996 50.0056C466.475 54.4966 468.99 60.5803 468.99 66.9229C468.99 73.2655 466.475 79.3493 461.996 83.8402Z" fill="white"/>
<path d="M490.667 191.552C485.009 191.552 479.583 193.8 475.582 197.8C471.581 201.801 469.333 207.227 469.333 212.885V320H384C367.026 320 350.748 326.743 338.745 338.745C326.743 350.748 320 367.026 320 384V469.333H106.667C89.6928 469.333 73.4142 462.591 61.4118 450.588C49.4095 438.586 42.6667 422.307 42.6667 405.333V106.667C42.6667 89.6928 49.4095 73.4142 61.4118 61.4118C73.4142 49.4095 89.6928 42.6667 106.667 42.6667H299.563C305.221 42.6667 310.647 40.4191 314.648 36.4183C318.648 32.4175 320.896 26.9913 320.896 21.3333C320.896 15.6754 318.648 10.2492 314.648 6.24839C310.647 2.24761 305.221 0 299.563 0L106.667 0C78.3873 0.0338743 51.2759 11.2828 31.2794 31.2794C11.2828 51.2759 0.0338743 78.3873 0 106.667L0 405.333C0.0338743 433.613 11.2828 460.724 31.2794 480.721C51.2759 500.717 78.3873 511.966 106.667 512H348.651C362.665 512.04 376.548 509.3 389.496 503.939C402.444 498.578 414.201 490.703 424.085 480.768L480.747 424.064C490.683 414.184 498.561 402.432 503.925 389.487C509.29 376.543 512.034 362.663 512 348.651V212.885C512 207.227 509.752 201.801 505.752 197.8C501.751 193.8 496.325 191.552 490.667 191.552ZM393.92 450.603C385.344 459.158 374.5 465.08 362.667 467.669V384C362.667 378.342 364.914 372.916 368.915 368.915C372.916 364.914 378.342 362.667 384 362.667H467.733C465.094 374.475 459.179 385.3 450.667 393.899L393.92 450.603Z" fill="white"/>
</g>
<defs>
<clipPath id="clip0_434_2">
<rect width="512" height="512" fill="white"/>
</clipPath>
</defs>
</svg>
