<svg width="512" height="512" viewBox="0 0 512 512" fill="none" xmlns="http://www.w3.org/2000/svg">
<g clip-path="url(#clip0_434_7)">
<path d="M256 0C205.368 0 155.873 15.0141 113.774 43.1438C71.6751 71.2734 38.863 111.255 19.487 158.033C0.110921 204.811 -4.95873 256.284 4.91908 305.943C14.7969 355.602 39.1785 401.217 74.9808 437.019C110.783 472.822 156.398 497.203 206.057 507.081C255.716 516.959 307.189 511.889 353.967 492.513C400.745 473.137 440.727 440.325 468.856 398.226C496.986 356.127 512 306.632 512 256C511.927 188.127 484.932 123.055 436.938 75.0618C388.945 27.0683 323.873 0.0734097 256 0ZM256 469.333C213.807 469.333 172.561 456.822 137.478 433.38C102.396 409.939 75.0525 376.621 58.9058 337.639C42.7591 298.658 38.5344 255.763 46.7659 214.381C54.9974 172.998 75.3155 134.986 105.151 105.151C134.986 75.3154 172.998 54.9973 214.381 46.7658C255.763 38.5343 298.658 42.759 337.639 58.9057C376.621 75.0524 409.939 102.396 433.38 137.478C456.822 172.561 469.333 213.807 469.333 256C469.271 312.56 446.775 366.787 406.781 406.781C366.787 446.775 312.561 469.271 256 469.333ZM362.667 256C362.667 261.658 360.419 267.084 356.418 271.085C352.418 275.086 346.991 277.333 341.333 277.333H277.333V341.333C277.333 346.991 275.086 352.418 271.085 356.418C267.084 360.419 261.658 362.667 256 362.667C250.342 362.667 244.916 360.419 240.915 356.418C236.914 352.418 234.667 346.991 234.667 341.333V277.333H170.667C165.009 277.333 159.583 275.086 155.582 271.085C151.581 267.084 149.333 261.658 149.333 256C149.333 250.342 151.581 244.916 155.582 240.915C159.583 236.914 165.009 234.667 170.667 234.667H234.667V170.667C234.667 165.009 236.914 159.583 240.915 155.582C244.916 151.581 250.342 149.333 256 149.333C261.658 149.333 267.084 151.581 271.085 155.582C275.086 159.583 277.333 165.009 277.333 170.667V234.667H341.333C346.991 234.667 352.418 236.914 356.418 240.915C360.419 244.916 362.667 250.342 362.667 256Z" fill="white"/>
</g>
<defs>
<clipPath id="clip0_434_7">
<rect width="512" height="512" fill="white"/>
</clipPath>
</defs>
</svg>
