<svg xmlns="http://www.w3.org/2000/svg" xml:space="preserve" width="512" height="512" style="enable-background:new 0 0 512 512" viewBox="0 0 24 24"><path d="m1.037 5.889-1.043-1.7L6.729.062l1.042 1.706zm21.237 10.328L18.149 22.9l1.7 1.051 4.125-6.684zm-1.35-1.617L16 22.583a2.879 2.879 0 0 1-2.13 1.394 3.158 3.158 0 0 1-.38.023 2.887 2.887 0 0 1-2.052-.854l-.963-.963a4.75 4.75 0 0 1-6.614-6.617L.853 12.557a2.911 2.911 0 0 1 .452-4.486l7.762-4.75a8.362 8.362 0 0 1 9.709.489l1.892-1.892 1.414 1.414-1.9 1.9a8.449 8.449 0 0 1 .742 9.368zM9.01 20.718l-3.692-3.695a2.719 2.719 0 0 0 .491 3.211 2.825 2.825 0 0 0 3.201.484zM18.13 5.9a6.4 6.4 0 0 0-8-.878L2.378 9.758a.88.88 0 0 0-.373.649.9.9 0 0 0 .262.736l10.586 10.589a.886.886 0 0 0 .759.26.9.9 0 0 0 .67-.441l4.92-7.973A6.445 6.445 0 0 0 18.13 5.9z" data-original="#000000"/></svg>