<svg xmlns="http://www.w3.org/2000/svg" xml:space="preserve" width="512" height="512" style="enable-background:new 0 0 512 512" viewBox="0 0 24 24"><path d="M16 8a7.965 7.965 0 0 0-4.546 1.434c.178.386.376.778.585 1.181A13.58 13.58 0 0 1 14 17a12.788 12.788 0 0 1-1.507 6.2A8 8 0 1 0 16 8zm1 8a1 1 0 1 1 1-1 1 1 0 0 1-1 1zm2-3a1 1 0 1 1 1-1 1 1 0 0 1-1 1zm2 3a1 1 0 1 1 1-1 1 1 0 0 1-1 1zm-10.736-4.463A11.781 11.781 0 0 1 12 17a9.732 9.732 0 0 1-2.293 6.707L9.414 24H2.586l-.293-.293A9.732 9.732 0 0 1 0 17a11.781 11.781 0 0 1 1.736-5.463A24.85 24.85 0 0 0 2.489 10h7.022c.217.5.48 1.012.753 1.537zM2.446 5.825A7.168 7.168 0 0 1 2 4a4 4 0 0 1 8 0 7.168 7.168 0 0 1-.446 1.825A11.618 11.618 0 0 0 9 8H3a11.618 11.618 0 0 0-.554-2.175z" data-original="#000000"/></svg>