<svg width="512" height="512" viewBox="0 0 512 512" fill="none" xmlns="http://www.w3.org/2000/svg">
<path d="M255.998 384C251.732 384 245.332 381.867 243.198 379.733L179.198 326.4C170.665 317.867 168.532 305.067 177.065 296.533C185.598 288 198.398 285.867 206.932 294.4L258.132 337.067L309.332 294.4C317.865 285.867 332.798 288 339.198 296.533C347.732 305.067 345.598 320 337.065 326.4L273.065 379.733C266.665 381.867 260.265 384 255.998 384Z" fill="white"/>
<path d="M256.001 384C243.201 384 234.668 375.466 234.668 362.666V234.666C234.668 221.866 243.201 213.333 256.001 213.333C268.801 213.333 277.335 221.866 277.335 234.666V362.666C277.335 373.333 268.801 384 256.001 384Z" fill="white"/>
<path d="M411.735 469.333H100.268C68.268 469.333 42.668 443.733 42.668 411.733V149.333C42.668 136.533 51.2013 128 64.0013 128H448.001C460.801 128 469.335 136.533 469.335 149.333V411.733C469.335 443.733 443.735 469.333 411.735 469.333ZM85.3346 170.667V411.733C85.3346 420.267 91.7346 426.667 100.268 426.667H411.735C420.268 426.667 426.668 420.267 426.668 409.6V170.667H85.3346Z" fill="white"/>
<path d="M447.998 170.667H63.9984C55.465 170.667 49.065 166.4 44.7984 157.867C40.5317 149.334 42.665 142.934 46.9317 136.534L104.532 59.7337C113.065 49.067 125.865 42.667 138.665 42.667H373.332C386.132 42.667 398.932 49.067 407.465 59.7337L465.065 136.534C469.332 142.934 471.465 151.467 467.198 157.867C462.932 166.4 456.532 170.667 447.998 170.667ZM106.665 128H405.332L373.332 85.3337H138.665L106.665 128Z" fill="white"/>
</svg>
